<?xml version="1.0" encoding="UTF-8" standalone="no"?>
<svg
   xmlns:dc="http://purl.org/dc/elements/1.1/"
   xmlns:cc="http://creativecommons.org/ns#"
   xmlns:rdf="http://www.w3.org/1999/02/22-rdf-syntax-ns#"
   xmlns:svg="http://www.w3.org/2000/svg"
   xmlns="http://www.w3.org/2000/svg"
   xmlns:sodipodi="http://sodipodi.sourceforge.net/DTD/sodipodi-0.dtd"
   xmlns:inkscape="http://www.inkscape.org/namespaces/inkscape"
   sodipodi:docname="conical.svg"
   inkscape:version="1.0 (4035a4fb49, 2020-05-01)"
   id="svg8"
   version="1.1"
   viewBox="0 0 210 297"
   height="297mm"
   width="210mm">
  <defs
     id="defs2" />
  <sodipodi:namedview
     inkscape:window-maximized="1"
     inkscape:window-y="1072"
     inkscape:window-x="1915"
     inkscape:window-height="1017"
     inkscape:window-width="1920"
     showgrid="false"
     inkscape:document-rotation="0"
     inkscape:current-layer="svg8"
     inkscape:document-units="mm"
     inkscape:cy="-690.13547"
     inkscape:cx="-696.5925"
     inkscape:zoom="0.20790918"
     inkscape:pageshadow="2"
     inkscape:pageopacity="0.0"
     borderopacity="1.0"
     bordercolor="#666666"
     pagecolor="#ffffff"
     id="base" />
  <metadata
     id="metadata5">
    <rdf:RDF>
      <cc:Work
         rdf:about="">
        <dc:format>image/svg+xml</dc:format>
        <dc:type
           rdf:resource="http://purl.org/dc/dcmitype/StillImage" />
        <dc:title />
      </cc:Work>
    </rdf:RDF>
  </metadata>
  <path
     sodipodi:nodetypes="ccscccccccccccccc"
     d="m 107.95666,16.362517 c -98.1382454,0.391377 -195.489631,5.28169 -210.7137,11.876278 -8.30488,21.019148 -15.49189,90.785935 -11.47648,127.372585 0.11439,1.04243 -0.80789,81.77175 -0.80789,81.77175 l 16.700661,-0.0656 0.359758,-82.12523 c 0,0 108.893732,21.24485 113.207857,22.6689 0,0 27.060618,48.40686 35.775404,55.32893 1.968748,1.46656 27.405872,2.34691 56.95437,2.34691 29.5485,0 54.98409,-0.88035 56.95284,-2.34691 8.71479,-6.92206 35.77541,-55.32893 35.77541,-55.32893 4.31412,-1.42405 113.20786,-22.6689 113.20786,-22.6689 l 0.35974,82.12523 16.70067,0.0656 c 0,0 -0.92223,-80.72932 -0.8079,-81.77175 C 334.16066,119.02473 326.97522,49.257943 318.67035,28.238795 303.4468,21.644172 206.09525,16.753894 107.95666,16.362517 Z"
     style="display:inline;stroke-width:2.21952"
     id="liquid" />
  <path
     id="outline"
     style="display:inline;stroke-width:2.21952"
     d="m 107.95666,16.362517 c -98.1382454,0.391377 -195.489631,5.28169 -210.7137,11.876278 -8.30488,21.019148 -15.49189,90.785935 -11.47648,127.372585 0.11439,1.04243 -0.80789,81.77175 -0.80789,81.77175 l 16.700661,-0.0656 0.359758,-82.12523 c 0,0 108.893732,21.24485 113.207857,22.6689 0,0 27.060618,48.40686 35.775404,55.32893 1.968748,1.46656 27.405872,2.34691 56.95437,2.34691 29.5485,0 54.98409,-0.88035 56.95284,-2.34691 8.71479,-6.92206 35.77541,-55.32893 35.77541,-55.32893 4.31412,-1.42405 113.20786,-22.6689 113.20786,-22.6689 l 0.35974,82.12523 16.70067,0.0656 c 0,0 -0.92223,-80.72932 -0.8079,-81.77175 C 334.16066,119.02473 326.97522,49.257943 318.67035,28.238795 303.4468,21.644172 206.09525,16.753894 107.95666,16.362517 Z"
     sodipodi:nodetypes="ccscccccccccccccc" />
</svg>
