<?xml version="1.0" encoding="UTF-8" standalone="no"?>
<svg
   xmlns:dc="http://purl.org/dc/elements/1.1/"
   xmlns:cc="http://creativecommons.org/ns#"
   xmlns:rdf="http://www.w3.org/1999/02/22-rdf-syntax-ns#"
   xmlns:svg="http://www.w3.org/2000/svg"
   xmlns="http://www.w3.org/2000/svg"
   xmlns:sodipodi="http://sodipodi.sourceforge.net/DTD/sodipodi-0.dtd"
   xmlns:inkscape="http://www.inkscape.org/namespaces/inkscape"
   width="210mm"
   height="297mm"
   viewBox="0 0 210 297"
   version="1.1"
   id="svg8"
   inkscape:version="1.0 (4035a4fb49, 2020-05-01)"
   sodipodi:docname="keg.svg">
  <defs
     id="defs2" />
  <sodipodi:namedview
     id="base"
     pagecolor="#ffffff"
     bordercolor="#666666"
     borderopacity="1.0"
     inkscape:pageopacity="0.0"
     inkscape:pageshadow="2"
     inkscape:zoom="0.25120107"
     inkscape:cx="694.6862"
     inkscape:cy="1086.7103"
     inkscape:document-units="mm"
     inkscape:current-layer="layer1"
     inkscape:document-rotation="0"
     showgrid="false"
     inkscape:window-width="1920"
     inkscape:window-height="1017"
     inkscape:window-x="1912"
     inkscape:window-y="1072"
     inkscape:window-maximized="1" />
  <metadata
     id="metadata5">
    <rdf:RDF>
      <cc:Work
         rdf:about="">
        <dc:format>image/svg+xml</dc:format>
        <dc:type
           rdf:resource="http://purl.org/dc/dcmitype/StillImage" />
        <dc:title />
      </cc:Work>
    </rdf:RDF>
  </metadata>
  <g
     inkscape:label="Layer 1"
     inkscape:groupmode="layer"
     id="layer1">
    <path
       id="outline"
       d="m 187.79696,288.91212 c 5.08321,0.006 10.6726,-5.87449 10.60611,-10.95727 -0.15841,-12.10969 -0.73157,-67.26246 -0.73157,-67.26246 7.08036,-7.71669 11.27681,-16.31958 0,-25.57664 l 0.73157,-74.33674 c 9.45491,-9.45064 7.77825,-18.185 -0.20484,-26.303446 0,0 0.1775,-63.967406 0.20484,-66.580696 0.0273,-2.61329 -6.35768,-9.2114932 -10.97077,-11.4208868 h -62.34926 l -2.8e-4,-1.539006 2.3266,-2.3857912 -29.549563,0.034546 1.396894,1.8167737 -0.117379,2.0734777 H 34.759622 C 30.146533,8.6833748 23.761511,15.281578 23.788851,17.894868 c 0.02734,2.61329 0.204839,66.580696 0.204839,66.580696 -7.983091,8.118446 -9.659749,16.852806 -0.204839,26.303446 l 0.731567,74.33673 c -11.27681,9.25706 -7.080358,17.85995 0,25.57664 0,0 -0.573155,55.15277 -0.731567,67.26247 -0.06649,5.08277 5.522906,10.96326 10.606113,10.95726 23.858236,-0.0289 76.700986,0.0355 76.700986,0.0355 0,0 52.84277,-0.0644 76.70101,-0.0355 z" />
    <path
       id="liquid"
       d="m 187.79696,288.91213 c 5.08321,0.006 10.6726,-5.87449 10.60611,-10.95727 -0.15841,-12.10969 -0.73157,-67.26246 -0.73157,-67.26246 7.08036,-7.71669 11.27681,-16.31958 0,-25.57664 l 0.73157,-74.33674 c 9.45491,-9.45064 7.77825,-18.185 -0.20484,-26.30345 0,0 0.1775,-63.9674 0.20484,-66.58069 0.0273,-2.61329 -6.35768,-9.2115 -10.97077,-11.42089 -50.89089,0 -101.78179,0 -152.67268,0 -4.61309,2.20939 -10.99811,8.8076 -10.97077,11.42089 0.0273,2.61329 0.20484,66.58069 0.20484,66.58069 -7.9831,8.11845 -9.65975,16.85281 -0.20484,26.30345 l 0.73156,74.33673 c -11.27681,9.25706 -7.08035,17.85995 0,25.57664 0,0 -0.57315,55.15277 -0.73156,67.26247 -0.0665,5.08277 5.5229,10.96326 10.60611,10.95726 23.85824,-0.0289 76.70099,0.0355 76.70099,0.0355 0,0 52.84277,-0.0644 76.70101,-0.0355 z" />
    <path
       id="keg_right"
       d="m 187.79696,288.91212 c 5.08321,0.006 10.6726,-5.87449 10.60611,-10.95727 -0.15841,-12.10969 -0.73157,-67.26246 -0.73157,-67.26246 7.08036,-7.71669 11.27681,-16.31958 0,-25.57664 l 0.73157,-74.33674 c 9.45491,-9.45064 7.77825,-18.185 -0.20484,-26.30344 0,0 0.1775,-63.96741 0.20484,-66.5807 0.0273,-2.61329 -6.35768,-9.21149 -10.97077,-11.42089 -50.89089,0 -101.781789,0 -152.672679,0 -4.61309,2.2094 -10.99811,8.8076 -10.97077,11.42089 0.0273,2.61329 0.20484,66.5807 0.20484,66.5807 -7.98309,8.11844 -9.65975,16.8528 -0.20484,26.30344 l 0.73156,74.33673 c -11.27681,9.25706 -7.08035,17.85995 0,25.57664 0,0 -0.57315,55.15277 -0.73156,67.26247 -0.0665,5.08277 5.5229,10.96326 10.60611,10.95726 23.85824,-0.0289 76.700989,0.0355 76.700989,0.0355 0,0 52.84277,-0.0644 76.70101,-0.0355 z" />
    <path
       id="keg_left"
       d="m 187.79696,288.91212 c 5.08321,0.006 10.6726,-5.87449 10.60611,-10.95727 -0.15841,-12.10969 -0.73157,-67.26246 -0.73157,-67.26246 7.08036,-7.71669 11.27681,-16.31958 0,-25.57664 l 0.73157,-74.33674 c 9.45491,-9.45064 7.77825,-18.184996 -0.20484,-26.303446 0,0 0.1775,-63.967404 0.20484,-66.580694 0.0273,-2.61329 -6.35768,-9.211494 -10.97077,-11.420887 -50.89089,0 -101.781781,0 -152.672681,0 -4.61309,2.209393 -10.99811,8.807597 -10.97077,11.420887 0.0273,2.61329 0.20484,66.580694 0.20484,66.580694 -7.98309,8.11845 -9.65975,16.852806 -0.20484,26.303446 l 0.73157,74.33673 c -11.27681,9.25706 -7.08036,17.85995 0,25.57664 0,0 -0.57316,55.15277 -0.73157,67.26247 -0.0665,5.08277 5.52291,10.96326 10.60612,10.95726 23.85823,-0.0289 76.700981,0.0355 76.700981,0.0355 0,0 52.84277,-0.0644 76.70101,-0.0355 z" />
  </g>
</svg>
