<?xml version="1.0" encoding="UTF-8" standalone="no"?>
<svg
   xmlns:dc="http://purl.org/dc/elements/1.1/"
   xmlns:cc="http://creativecommons.org/ns#"
   xmlns:rdf="http://www.w3.org/1999/02/22-rdf-syntax-ns#"
   xmlns:svg="http://www.w3.org/2000/svg"
   xmlns="http://www.w3.org/2000/svg"
   xmlns:sodipodi="http://sodipodi.sourceforge.net/DTD/sodipodi-0.dtd"
   xmlns:inkscape="http://www.inkscape.org/namespaces/inkscape"
   sodipodi:docname="bottle.svg"
   inkscape:version="1.0 (4035a4fb49, 2020-05-01)"
   id="svg8"
   version="1.1"
   viewBox="0 0 210 297"
   height="297mm"
   width="210mm">
  <defs
     id="defs2" />
  <sodipodi:namedview
     inkscape:window-maximized="1"
     inkscape:window-y="-8"
     inkscape:window-x="1912"
     inkscape:window-height="1057"
     inkscape:window-width="1920"
     showgrid="false"
     inkscape:document-rotation="0"
     inkscape:current-layer="layer1"
     inkscape:document-units="mm"
     inkscape:cy="846.81969"
     inkscape:cx="355.68248"
     inkscape:zoom="0.66765609"
     inkscape:pageshadow="2"
     inkscape:pageopacity="0.0"
     borderopacity="1.0"
     bordercolor="#666666"
     pagecolor="#ffffff"
     id="base" />
  <metadata
     id="metadata5">
    <rdf:RDF>
      <cc:Work
         rdf:about="">
        <dc:format>image/svg+xml</dc:format>
        <dc:type
           rdf:resource="http://purl.org/dc/dcmitype/StillImage" />
        <dc:title />
      </cc:Work>
    </rdf:RDF>
  </metadata>
  <g
     id="layer1">
    <path
       id="outline"
       d="M 58.443848,260.61481 C 56.562843,249.06887 55.493982,174.20717 56.3903,133.97923 c 0.216265,-9.70737 13.983751,-14.076 18.938283,-22.13268 0,0 12.833988,-48.523812 14.603016,-55.445862 0.395911,-1.549238 -3.227519,-0.09318 -4.791613,-0.228059 -2.068281,-0.178538 2.966241,-5.476155 2.966241,-5.476155 8.767309,0 17.534623,0 26.301923,0 0,0 5.03452,5.297813 2.96624,5.476155 -1.56409,0.134881 -5.18753,-1.321179 -4.79161,0.228059 1.76903,6.92205 14.60302,55.445862 14.60302,55.445862 4.95453,8.05668 18.72199,12.42531 18.93828,22.13268 0.89632,40.22794 -0.17254,115.08964 -2.05355,126.63558 -12.03001,20.17717 -82.027329,13.16481 -85.626682,0 z" />
  </g>
  <g
     id="layer2">
    <path
       id="liquid"
       d="M 58.443848,260.61481 C 56.562843,249.06887 55.493982,174.20717 56.3903,133.97923 c 0.216265,-9.70737 13.983751,-14.076 18.938283,-22.13268 0,0 12.833988,-48.523812 14.603016,-55.445862 0.395911,-1.549238 -3.227519,-0.09318 -4.791613,-0.228059 -2.068281,-0.178538 2.966241,-5.476155 2.966241,-5.476155 8.767309,0 17.534623,0 26.301923,0 0,0 5.03452,5.297813 2.96624,5.476155 -1.56409,0.134881 -5.18753,-1.321179 -4.79161,0.228059 1.76903,6.92205 14.60302,55.445862 14.60302,55.445862 4.95453,8.05668 18.72199,12.42531 18.93828,22.13268 0.89632,40.22794 -0.17254,115.08964 -2.05355,126.63558 -12.03001,20.17717 -82.027329,13.16481 -85.626682,0 z" />
  </g>
  <g
     id="layer3">
    <path
       id="liquid_lighten"
       d="m 60.519156,265.01042 h 81.517774 l 2.35757,-66.97356 c -2.62898,72.6109 -88.262873,73.8335 -87.15702,-0.0896 z" />

  </g>
  <g
     id="layer4">
    <path
       id="glass_right"
       d="M 58.443848,260.61481 C 56.562843,249.06887 55.493982,174.20717 56.3903,133.97923 c 0.216265,-9.70737 13.983751,-14.076 18.938283,-22.13268 0,0 12.833988,-48.523812 14.603016,-55.445862 0.395911,-1.549238 -3.227519,-0.09318 -4.791613,-0.228059 -2.068281,-0.178538 2.966241,-5.476155 2.966241,-5.476155 8.767309,0 17.534623,0 26.301923,0 0,0 5.03452,5.297813 2.96624,5.476155 -1.56409,0.134881 -5.18753,-1.321179 -4.79161,0.228059 1.76903,6.92205 14.60302,55.445862 14.60302,55.445862 4.95453,8.05668 18.72199,12.42531 18.93828,22.13268 0.89632,40.22794 -0.17254,115.08964 -2.05355,126.63558 -12.03001,20.17717 -82.027329,13.16481 -85.626682,0 z" />
  </g>
  <g
     id="layer5">
    <path
       id="glass_left"
       d="M 58.443848,260.61481 C 56.562843,249.06887 55.493982,174.20717 56.3903,133.97923 c 0.216265,-9.70737 13.983751,-14.076 18.938283,-22.13268 0,0 12.833988,-48.523812 14.603016,-55.445862 0.395911,-1.549238 -3.227519,-0.09318 -4.791613,-0.228059 -2.068281,-0.178538 2.966241,-5.476155 2.966241,-5.476155 8.767309,0 17.534623,0 26.301923,0 0,0 5.03452,5.297813 2.96624,5.476155 -1.56409,0.134881 -5.18753,-1.321179 -4.79161,0.228059 1.76903,6.92205 14.60302,55.445862 14.60302,55.445862 4.95453,8.05668 18.72199,12.42531 18.93828,22.13268 0.89632,40.22794 -0.17254,115.08964 -2.05355,126.63558 -12.03001,20.17717 -82.027329,13.16481 -85.626682,0 z" />
  </g>
  <g
     id="layer6">   
	 <path
       d="m 141.18133,125.58388 c 0,0 -13.43634,-1.06507 -20.19694,-1.40571 -0.1293,6.82809 -0.43968,8.27205 -0.929,12.45382 l 0.69661,37.91391 5.76186,36.78653 6.32147,-36.56283 5.55192,-37.97347 z"
       id="glass_glare" />
	 </g>
  <g
     id="layer7" >
	     <path
       id="glass_bottom"
       d="m 101.51195,256.32345 c -6.762428,0.1584 -13.517742,0.75718 -20.259819,1.4621 -6.89593,0.721 -20.640918,2.82926 -20.640918,2.82926 0,0 13.472939,3.96838 20.306135,5.18584 6.727341,1.19861 13.516883,2.07432 20.306142,2.07432 6.78924,0 13.57879,-0.87571 20.30612,-2.07432 6.8332,-1.21746 20.30614,-5.18584 20.30614,-5.18584 0,0 -13.7581,-3.07396 -20.70528,-3.79588 -6.52025,-0.67757 -13.07885,-0.64866 -19.61852,-0.49548 z" />

	 </g>
</svg>
